# This file uses centimeters as units for non-parametric coordinates.

v 0.707107 0.000000 -0.707107
v 0.000000 0.000000 -1.000000
v -0.707107 0.000000 -0.707107
v -1.000000 0.000000 0.000000
v -0.707107 0.000000 0.707107
v 0.000000 0.000000 1.000000
v 0.707107 0.000000 0.707107
v 1.000000 0.000000 0.000000
v 0.146312 20.000000 -0.146312
v 0.000000 20.000000 -0.206916
v -0.146312 20.000000 -0.146312
v -0.206916 20.000000 0.000000
v -0.146312 20.000000 0.146312
v 0.000000 20.000000 0.206916
v 0.146312 20.000000 0.146312
v 0.206916 20.000000 0.000000
v 0.000000 0.000000 0.000000
v 0.000000 20.000000 0.000000
v 3.814821 3.535047 -3.814821
v 0.000000 3.535047 -5.394971
v -3.814821 3.535047 -3.814821
v -5.394971 3.535047 0.000000
v -3.814821 3.535047 3.814821
v 0.000000 3.535047 5.394971
v 3.814821 3.535047 3.814821
v 5.394972 3.535047 0.000000
v 0.000000 14.324990 0.000000
v 3.399556 7.937086 -3.399556
v 0.000000 7.937086 -4.807698
v -3.399556 7.937086 -3.399556
v -4.807698 7.937086 0.000000
v -3.399556 7.937086 3.399556
v 0.000000 7.937086 4.807698
v 3.399556 7.937086 3.399556
v 4.807698 7.937086 0.000000
v 0.000000 17.552483 0.000000
v 2.312065 13.154465 -2.312065
v 0.000000 13.154465 -3.269754
v -2.312065 13.154465 -2.312065
v -3.269754 13.154465 0.000000
v -2.312065 13.154465 2.312065
v 0.000000 13.154465 3.269754
v 2.312065 13.154465 2.312065
v 3.269754 13.154465 0.000000
v 0.000000 19.693974 0.000000
v 1.343246 17.108656 -1.343246
v 0.000000 17.108656 -1.899637
v -1.343246 17.108656 -1.343246
v -1.899637 17.108656 0.000000
v -1.343246 17.108656 1.343246
v 0.000000 17.108656 1.899637
v 1.343246 17.108656 1.343246
v 1.899637 17.108656 0.000000
v 0.000000 20.907932 0.000000
vt 0.610485 0.045765
vt 0.500000 0.000000
vt 0.389515 0.045765
vt 0.343750 0.156250
vt 0.389515 0.266735
vt 0.500000 0.312500
vt 0.610485 0.266735
vt 0.656250 0.156250
vt 0.375000 0.312500
vt 0.406250 0.312500
vt 0.437500 0.312500
vt 0.468750 0.312500
vt 0.500000 0.312500
vt 0.531250 0.312500
vt 0.562500 0.312500
vt 0.593750 0.312500
vt 0.625000 0.312500
vt 0.375000 0.688440
vt 0.406250 0.688440
vt 0.437500 0.688440
vt 0.468750 0.688440
vt 0.500000 0.688440
vt 0.531250 0.688440
vt 0.562500 0.688440
vt 0.593750 0.688440
vt 0.625000 0.688440
vt 0.610485 0.733265
vt 0.500000 0.687500
vt 0.389515 0.733265
vt 0.343750 0.843750
vt 0.389515 0.954235
vt 0.500000 1.000000
vt 0.610485 0.954235
vt 0.656250 0.843750
vt 0.500000 0.150000
vt 0.500000 0.837500
vt 0.676777 0.073223
vt 0.750000 0.250000
vt 0.676777 0.426777
vt 0.500000 0.500000
vt 0.323223 0.426777
vt 0.250000 0.250000
vt 0.323223 0.073223
vt 0.500000 0.000000
vt 0.250000 0.500000
vt 0.312500 0.500000
vt 0.500000 1.000000
vt 0.375000 0.500000
vt 0.437500 0.500000
vt 0.500000 0.500000
vt 0.562500 0.500000
vt 0.625000 0.500000
vt 0.687500 0.500000
vt 0.750000 0.500000
vt 0.676777 0.073223
vt 0.750000 0.250000
vt 0.676777 0.426777
vt 0.500000 0.500000
vt 0.323223 0.426777
vt 0.250000 0.250000
vt 0.323223 0.073223
vt 0.500000 0.000000
vt 0.250000 0.500000
vt 0.312500 0.500000
vt 0.500000 1.000000
vt 0.375000 0.500000
vt 0.437500 0.500000
vt 0.500000 0.500000
vt 0.562500 0.500000
vt 0.625000 0.500000
vt 0.687500 0.500000
vt 0.750000 0.500000
vt 0.676777 0.073223
vt 0.750000 0.250000
vt 0.676777 0.426777
vt 0.500000 0.500000
vt 0.323223 0.426777
vt 0.250000 0.250000
vt 0.323223 0.073223
vt 0.500000 0.000000
vt 0.250000 0.500000
vt 0.312500 0.500000
vt 0.500000 1.000000
vt 0.375000 0.500000
vt 0.437500 0.500000
vt 0.500000 0.500000
vt 0.562500 0.500000
vt 0.625000 0.500000
vt 0.687500 0.500000
vt 0.750000 0.500000
vt 0.676777 0.073223
vt 0.750000 0.250000
vt 0.676777 0.426777
vt 0.500000 0.500000
vt 0.323223 0.426777
vt 0.250000 0.250000
vt 0.323223 0.073223
vt 0.500000 0.000000
vt 0.250000 0.500000
vt 0.312500 0.500000
vt 0.500000 1.000000
vt 0.375000 0.500000
vt 0.437500 0.500000
vt 0.500000 0.500000
vt 0.562500 0.500000
vt 0.625000 0.500000
vt 0.687500 0.500000
vt 0.750000 0.500000
vn 0.706551 0.039623 -0.706551
vn 0.000000 0.039623 -0.999215
vn 0.000000 0.040937 -0.999162
vn 0.706514 0.040937 -0.706514
vn -0.706551 0.039623 -0.706551
vn -0.706514 0.040937 -0.706514
vn -0.999215 0.039623 -0.000000
vn -0.999162 0.040937 -0.000000
vn -0.706551 0.039623 0.706551
vn -0.706514 0.040937 0.706514
vn -0.000000 0.039623 0.999215
vn -0.000000 0.040937 0.999162
vn 0.706551 0.039623 0.706551
vn 0.706514 0.040937 0.706514
vn 0.999215 0.039623 -0.000000
vn 0.999162 0.040937 -0.000000
vn 0.000000 -1.000000 0.000000
vn 0.000000 -1.000000 0.000000
vn 0.000000 -1.000000 0.000000
vn 0.000000 -1.000000 0.000000
vn 0.000000 -1.000000 0.000000
vn 0.000000 -1.000000 0.000000
vn 0.000000 -1.000000 0.000000
vn 0.000000 -1.000000 0.000000
vn 0.000000 -1.000000 0.000000
vn 0.000000 -1.000000 0.000000
vn 0.000000 -1.000000 0.000000
vn 0.000000 -1.000000 0.000000
vn 0.000000 -1.000000 0.000000
vn 0.000000 -1.000000 0.000000
vn 0.000000 -1.000000 0.000000
vn 0.000000 -1.000000 0.000000
vn 0.000000 -1.000000 0.000000
vn 0.000000 -1.000000 0.000000
vn 0.000000 -1.000000 0.000000
vn 0.000000 -1.000000 0.000000
vn 0.000000 -1.000000 0.000000
vn 0.000000 -1.000000 0.000000
vn 0.000000 -1.000000 0.000000
vn 0.000000 -1.000000 0.000000
vn 0.000000 1.000000 0.000002
vn 0.000000 -1.000000 0.000000
vn 0.000000 -1.000000 0.000000
vn 0.000000 -1.000000 0.000000
vn 0.000000 -1.000000 0.000000
vn 0.000000 -1.000000 0.000000
vn 0.000000 -1.000000 0.000000
vn 0.000000 -1.000000 0.000000
vn 0.000000 -1.000000 0.000000
vn 0.632455 0.447214 -0.632456
vn 0.000000 0.447214 -0.894427
vn -0.000001 1.000000 -0.000000
vn -0.632456 0.447214 -0.632456
vn -0.894427 0.447214 0.000000
vn -0.632456 0.447214 0.632456
vn -0.000000 0.447214 0.894427
vn 0.632456 0.447214 0.632456
vn 0.894427 0.447214 -0.000000
vn 0.000000 -1.000000 0.000000
vn 0.000000 -1.000000 0.000000
vn 0.000000 -1.000000 0.000000
vn 0.000000 -1.000000 0.000000
vn 0.000000 -1.000000 0.000000
vn 0.000000 -1.000000 0.000000
vn 0.000000 -1.000000 0.000000
vn 0.000000 -1.000000 0.000000
vn 0.632455 0.447214 -0.632456
vn 0.000000 0.447214 -0.894427
vn -0.000001 1.000000 -0.000000
vn -0.632456 0.447214 -0.632456
vn -0.894427 0.447214 0.000000
vn -0.632456 0.447214 0.632456
vn -0.000000 0.447214 0.894427
vn 0.632455 0.447214 0.632456
vn 0.894427 0.447214 -0.000000
vn 0.000000 -1.000000 -0.000000
vn 0.000000 -1.000000 -0.000000
vn 0.000000 -1.000000 -0.000000
vn 0.000000 -1.000000 -0.000000
vn 0.000000 -1.000000 -0.000000
vn 0.000000 -1.000000 -0.000000
vn 0.000000 -1.000000 -0.000000
vn 0.000000 -1.000000 -0.000000
vn 0.632456 0.447214 -0.632456
vn 0.000000 0.447213 -0.894427
vn 0.000000 1.000000 0.000001
vn -0.632456 0.447213 -0.632456
vn -0.894427 0.447214 0.000000
vn -0.632456 0.447214 0.632456
vn -0.000000 0.447214 0.894427
vn 0.632455 0.447214 0.632456
vn 0.894427 0.447214 0.000000
vn 0.000000 -1.000000 0.000000
vn 0.000000 -1.000000 0.000000
vn 0.000000 -1.000000 0.000000
vn 0.000000 -1.000000 0.000000
vn 0.000000 -1.000000 0.000000
vn 0.000000 -1.000000 0.000000
vn 0.000000 -1.000000 0.000000
vn 0.000000 -1.000000 0.000000
vn 0.632456 0.447214 -0.632455
vn 0.000000 0.447214 -0.894427
vn -0.000000 1.000000 -0.000001
vn -0.632456 0.447213 -0.632456
vn -0.894427 0.447213 -0.000000
vn -0.632456 0.447213 0.632455
vn -0.000000 0.447214 0.894427
vn 0.632456 0.447214 0.632455
vn 0.894427 0.447213 -0.000000
f 1/9/1 2/10/2 10/19/3 9/18/4
f 2/10/2 3/11/5 11/20/6 10/19/3
f 3/11/5 4/12/7 12/21/8 11/20/6
f 4/12/7 5/13/9 13/22/10 12/21/8
f 5/13/9 6/14/11 14/23/12 13/22/10
f 6/14/11 7/15/13 15/24/14 14/23/12
f 7/15/13 8/16/15 16/25/16 15/24/14
f 8/16/15 1/17/1 9/26/4 16/25/16
f 2/2/17 1/1/18 17/35/19
f 3/3/20 2/2/21 17/35/22
f 4/4/23 3/3/24 17/35/25
f 5/5/26 4/4/27 17/35/28
f 6/6/29 5/5/30 17/35/31
f 7/7/32 6/6/33 17/35/34
f 8/8/35 7/7/36 17/35/37
f 1/1/38 8/8/39 17/35/40
f 9/33/4 10/32/3 18/36/41
f 10/32/3 11/31/6 18/36/41
f 11/31/6 12/30/8 18/36/41
f 12/30/8 13/29/10 18/36/41
f 13/29/10 14/28/12 18/36/41
f 14/28/12 15/27/14 18/36/41
f 15/27/14 16/34/16 18/36/41
f 16/34/16 9/33/4 18/36/41
f 19/37/42 26/38/43 25/39/44 24/40/45 23/41/46 22/42/47 21/43/48 20/44/49
f 19/45/50 20/46/51 27/47/52
f 20/46/51 21/48/53 27/47/52
f 21/48/53 22/49/54 27/47/52
f 22/49/54 23/50/55 27/47/52
f 23/50/55 24/51/56 27/47/52
f 24/51/56 25/52/57 27/47/52
f 25/52/57 26/53/58 27/47/52
f 26/53/58 19/54/50 27/47/52
f 28/55/59 35/56/60 34/57/61 33/58/62 32/59/63 31/60/64 30/61/65 29/62/66
f 28/63/67 29/64/68 36/65/69
f 29/64/68 30/66/70 36/65/69
f 30/66/70 31/67/71 36/65/69
f 31/67/71 32/68/72 36/65/69
f 32/68/72 33/69/73 36/65/69
f 33/69/73 34/70/74 36/65/69
f 34/70/74 35/71/75 36/65/69
f 35/71/75 28/72/67 36/65/69
f 37/73/76 44/74/77 43/75/78 42/76/79 41/77/80 40/78/81 39/79/82 38/80/83
f 37/81/84 38/82/85 45/83/86
f 38/82/85 39/84/87 45/83/86
f 39/84/87 40/85/88 45/83/86
f 40/85/88 41/86/89 45/83/86
f 41/86/89 42/87/90 45/83/86
f 42/87/90 43/88/91 45/83/86
f 43/88/91 44/89/92 45/83/86
f 44/89/92 37/90/84 45/83/86
f 46/91/93 53/92/94 52/93/95 51/94/96 50/95/97 49/96/98 48/97/99 47/98/100
f 46/99/101 47/100/102 54/101/103
f 54/101/103 47/100/102 48/102/104
f 54/101/103 48/102/104 49/103/105
f 54/101/103 49/103/105 50/104/106
f 54/101/103 50/104/106 51/105/107
f 54/101/103 51/105/107 52/106/108
f 54/101/103 52/106/108 53/107/109
f 54/101/103 53/107/109 46/108/101
